<?xml version="1.0"?>
<svg xmlns="http://www.w3.org/2000/svg" xmlns:xlink="http://www.w3.org/1999/xlink" xmlns:svgjs="http://svgjs.com/svgjs" version="1.1" width="512" height="512" x="0" y="0" viewBox="0 0 512 512" style="enable-background:new 0 0 512 512" xml:space="preserve" class=""><g><g xmlns="http://www.w3.org/2000/svg"><path d="m266.605 224.184c-5.625 5.625-15.586 5.625-21.211 0l-53.042-53.042-21.211 21.211 53.042 53.042c5.859 5.859 5.856 15.355 0 21.211l-53.042 53.027 21.211 21.226 53.042-53.042c5.859-5.859 15.355-5.856 21.211 0l53.027 53.042 21.226-21.226-53.042-53.027c-5.859-5.859-5.856-15.355 0-21.211l53.042-53.042-21.226-21.211z" fill="#fff" data-original="#000000" style="" class=""/><path d="m256 0c-140.61 0-256 115.39-256 256s115.39 256 256 256 256-115.39 256-256-115.39-256-256-256zm116.675 309.027c5.859 5.859 5.856 15.355 0 21.211l-42.437 42.437c-5.859 5.859-15.355 5.856-21.211 0l-53.027-53.042-53.042 53.042c-5.859 5.859-15.355 5.856-21.211 0l-42.422-42.437c-5.859-5.859-5.859-15.352 0-21.211l53.042-53.027-53.042-53.042c-5.859-5.859-5.859-15.352 0-21.211l42.422-42.422c5.859-5.859 15.352-5.859 21.211 0l53.042 53.042 53.027-53.042c5.859-5.859 15.352-5.859 21.211 0l42.437 42.422c5.859 5.859 5.856 15.355 0 21.211l-53.042 53.042z" fill="#fff" data-original="#000000" style="" class=""/></g></g></svg>
